<?xml version="1.0" encoding="utf-8"?>
<!-- Generator: Adobe Illustrator 23.0.1, SVG Export Plug-In . SVG Version: 6.00 Build 0)  -->
<svg version="1.1" id="Warstwa_1" xmlns="http://www.w3.org/2000/svg" xmlns:xlink="http://www.w3.org/1999/xlink" x="0px" y="0px"
	 viewBox="0 0 1451.3 1451.3" style="enable-background:new 0 0 1451.3 1451.3;" xml:space="preserve">
<style type="text/css">
	.st0{fill:url(#SVGID_1_);}
</style>
<g>
	<linearGradient id="SVGID_1_" gradientUnits="userSpaceOnUse" x1="245.236" y1="1220.1093" x2="1218.5167" y2="246.8286">
		<stop  offset="0" style="stop-color:#2E3192"/>
		<stop  offset="0.192" style="stop-color:#2D3293"/>
		<stop  offset="0.3256" style="stop-color:#293896"/>
		<stop  offset="0.4416" style="stop-color:#20419A"/>
		<stop  offset="0.5475" style="stop-color:#064DA1"/>
		<stop  offset="0.6466" style="stop-color:#005BAB"/>
		<stop  offset="0.7406" style="stop-color:#006BB7"/>
		<stop  offset="0.8306" style="stop-color:#007EC6"/>
		<stop  offset="0.9154" style="stop-color:#0093D8"/>
		<stop  offset="0.9969" style="stop-color:#00ACEE"/>
		<stop  offset="1" style="stop-color:#00AEEF"/>
	</linearGradient>
	<path class="st0" d="M884.7,983.9c-92,0-180,0-256.8,0c-30.6,117.2-50.8,226.1-90.2,326.9c-12.8,32.8-74.8,58.3-116.6,62.5
		c-53.7,5.3-37.8-49.1-38-83.3c-0.8-94.1-0.3-188.2-0.3-289.8c-89.5,7.6-185.6,15.7-281.7,23.8c-0.8-10-1.6-20-2.4-30
		c47.2-8.8,94.5-17.6,158.8-29.6c-52.2-6.8-86.2-11.3-120.1-15.7c-0.2-8.6-0.4-17.1-0.7-25.7c70.3-14.9,140.2-34.4,211.2-43.3
		c50.3-6.3,70.9-27.1,71.6-78.4c0.7-52.5,6.7-104.9,11.6-175.5c-128.4,0-250.8,0-373.3,0c-4.9-11.6-9.8-23.1-14.7-34.7
		c21.7-18.5,41.2-48.6,65.5-53.6c108.9-22.2,219.1-37.2,328.8-54.8c-0.4-7-0.8-14.1-1.2-21.1c-85.5,10.2-171.1,20.4-256.6,30.6
		c-1.2-7.2-2.4-14.5-3.6-21.7c70.8-14.6,141.1-34,212.6-42.1c51.8-5.8,70.7-26.4,70.9-79.1c0.2-46.3,9.8-92.5,15.2-138.8
		c10.2-8.3,20.4-16.6,30.6-24.8c20.9,26.2,41.8,52.5,56.3,70.6c0.2-2.2,2.6-24.5,6.5-60.8c28.3,19.2,49.5,33.6,69.5,47.2
		c4.7-16.7,10.1-36,18.6-66c81.1,54.7,30.8,134.4,50.8,194.9c3.4,2.2,7.6,7.3,11.7,7.2c253.8-5.4,201.7,34.4,229.6-212.4
		c2.7-23.5,0.7-49.4,10-69.7c7.3-15.8,27.7-30.6,44.6-34.1c11.4-2.4,32.2,12.3,39.5,25.1c41.8,73.3,88,146.3,59.5,239
		c-2.6,8.6,2.7,19.8,5,33.2c80.9,4.9,160.1,9.8,239.2,14.6c0,9.6,0,19.2,0.1,28.9c-75.5,0-150.9,0-226.4,0c-0.8,8.7-1.6,17.3-2.5,26
		c75.8,10.1,151.5,20.1,227.3,30.2c-1,9-1.9,18.1-2.9,27.1c-26.8,2.1-53.7,4.1-89.1,6.9c15,18.2,27,32.7,48,58.2
		c-61.9,6.4-113.7,15.2-165.6,16.1c-44.4,0.7-65.7,14.9-65.3,63.9c0.3,44.1-6.5,88.2-10.7,137.9c110.7,6.9,224.7-23.8,334.8,59.5
		c-49.2,11.7-82.3,19.5-119.6,28.3c25.7,24.2,47.7,44.9,85,80c-107.5,11.3-199,21-294.8,31c-8.4,69.4-11,140.3-27.1,207.9
		c-11.4,48-38.2,93.1-63.7,136c-9.1,15.4-34.4,20.5-52.2,30.3c-9.5-20.2-26.2-40-27.2-60.7c-4.2-78.8-3-157.8-4.5-236.7
		C889.4,1024.5,886.5,1004.1,884.7,983.9z M635.9,827c82.4-11.9,152.6-20.5,222-33.4c12.7-2.4,30.5-21.3,32.1-34.4
		c6.2-51,6.8-102.7,10.2-165.7c-72.7,7.1-135.8,10.6-197.8,21.2c-16.5,2.8-38.7,25.2-42.6,42.4C648.2,707.8,644.5,760.4,635.9,827z
		 M87.4,565.6c0.9,12.3,1.8,24.6,2.7,36.9c114.1-9,228.2-18,342.3-27c-0.9-12.1-1.8-24.2-2.7-36.2
		C315.7,548.1,201.5,556.8,87.4,565.6z"/>
</g>
</svg>
